<svg width="163" height="30" viewBox="0 0 163 30" fill="none" xmlns="http://www.w3.org/2000/svg">
<path fill-rule="evenodd" clip-rule="evenodd" d="M29.9001 13.2505C29.5516 10.2442 28.3042 7.41351 26.3214 5.1293C24.3385 2.8451 21.7127 1.21398 18.7881 0.449712C21.3106 1.27578 23.5512 2.79379 25.2551 4.83121C26.959 6.86863 28.058 9.34377 28.4271 11.9754C25.3581 9.46116 20.3946 7.09415 15.7131 8.56452C17.7741 10.4374 18.2631 12.7699 16.0776 14.7779C18.4596 10.8009 13.7226 9.04513 11.3526 7.21731C9.43861 5.73943 10.5861 3.91311 12.0636 2.63349C13.6851 1.2277 16.0896 0.325054 17.8791 0.230434C14.4861 -0.413885 9.36361 0.254464 6.90061 2.7236C4.43761 5.19274 6.15061 8.58104 9.15061 11.307C9.15061 11.307 5.35261 14.9221 3.16261 17.5534C0.972606 20.1848 6.04561 24.0222 6.04561 24.0222C11.9286 19.6666 16.4601 23.2457 18.6456 27.4991C16.322 28.2302 13.8496 28.3504 11.4663 27.8479C9.08292 27.3455 6.8688 26.2374 5.03691 24.6302C3.20503 23.0231 1.81703 20.9709 1.00645 18.6712C0.195875 16.3715 -0.0100096 13.9017 0.408606 11.4993C-0.0992054 13.6329 -0.134129 15.852 0.306292 18.0005C0.746712 20.1491 1.65179 22.175 2.95789 23.9359C4.264 25.6967 5.93944 27.1498 7.86645 28.1929C9.79345 29.236 11.9252 29.8438 14.112 29.9737C16.2987 30.1035 18.4873 29.7522 20.5239 28.9445C22.5606 28.1367 24.3958 26.8922 25.9006 25.2982C27.4054 23.7043 28.5433 21.7997 29.2343 19.7183C29.9252 17.6369 30.1525 15.4292 29.9001 13.2505ZM9.59761 14.5301L7.49761 14.3799L10.6911 11.5488L9.59761 14.5301Z" fill="url(#paint0_linear_2021_139)"/>
<path fill-rule="evenodd" clip-rule="evenodd" d="M4.13978 15.3925C5.60978 13.793 7.26127 12.1604 8.12377 11.3208C5.86328 11.2487 3.83228 10.3281 4.00478 7.64417C4.15954 5.88761 4.79652 4.20813 5.84527 2.7915C4.74048 3.62403 3.75349 4.60267 2.91128 5.7007C0.452776 8.91028 0.0702765 13.9282 4.13978 15.3925Z" fill="url(#paint1_linear_2021_139)"/>
<path d="M153.099 8.68201H162.815V10.9386H155.593V13.6826H162.261V15.9391H155.593V19.0622H163V21.3188H153.099V8.68201Z" fill="url(#paint2_linear_2021_139)"/>
<path d="M139.223 21.3188V8.68201H144.211C146.316 8.68201 147.96 9.26571 149.143 10.4331C150.325 11.5885 150.916 13.141 150.916 15.0907C150.916 16.92 150.319 18.4183 149.124 19.5857C147.93 20.7411 146.31 21.3188 144.266 21.3188H139.223ZM141.717 10.8844V19.0983H144.211C145.553 19.0983 146.587 18.7252 147.314 17.9791C148.053 17.2329 148.422 16.2701 148.422 15.0907C148.422 13.7788 148.053 12.7498 147.314 12.0037C146.587 11.2575 145.541 10.8844 144.174 10.8844H141.717Z" fill="url(#paint3_linear_2021_139)"/>
<path d="M123.645 21.3188L128.854 8.68201H132.382L137.573 21.3188H134.82L133.694 18.4665H127.524L126.416 21.3188H123.645ZM128.392 16.2641H132.844L130.609 10.6136L128.392 16.2641Z" fill="url(#paint4_linear_2021_139)"/>
<path d="M122.437 21.3188H119.519C119.347 20.9938 119.236 20.6328 119.187 20.2356C119.125 19.7903 119.094 19.1886 119.094 18.4304C119.094 17.0102 118.392 16.3002 116.988 16.3002H114.218V21.3188H111.724V8.68201H118.06C119.365 8.68201 120.399 9.01899 121.163 9.69295C121.926 10.3549 122.308 11.2033 122.308 12.2384C122.308 12.9966 122.074 13.6765 121.606 14.2783C121.151 14.868 120.535 15.3013 119.759 15.5781C121.027 15.9873 121.699 16.926 121.773 18.3943C121.809 19.1404 121.871 19.7001 121.957 20.0732C122.043 20.4342 122.204 20.7531 122.437 21.0299V21.3188ZM114.218 14.0436H117.912C118.515 14.0436 118.983 13.9052 119.316 13.6284C119.648 13.3396 119.815 12.9544 119.815 12.473C119.815 11.9916 119.648 11.6186 119.316 11.3538C118.996 11.077 118.528 10.9386 117.912 10.9386H114.218V14.0436Z" fill="url(#paint5_linear_2021_139)"/>
<path d="M109.827 8.68201V10.9386H105.265V21.3188H102.771V10.9386H98.1902V8.68201H109.827Z" fill="url(#paint6_linear_2021_139)"/>
<path d="M82.2901 8.68201H92.0061V10.9386H84.7838V13.6826H91.452V15.9391H84.7838V19.0622H92.1908V21.3188H82.2901V8.68201Z" fill="url(#paint7_linear_2021_139)"/>
<path d="M73.0985 21.4993C71.2883 21.5234 69.7552 20.9156 68.4991 19.676C67.2554 18.4244 66.6458 16.8658 66.6705 15.0004C66.6335 13.1951 67.2677 11.6547 68.573 10.3789C69.8906 9.09119 71.473 8.46537 73.3202 8.50148C74.9949 8.50148 76.368 8.89863 77.4393 9.69294C78.523 10.4752 79.2372 11.5463 79.582 12.9063L77.1438 13.6645C76.9467 12.7378 76.5157 12.0217 75.8508 11.5163C75.1858 11.0108 74.3546 10.758 73.3571 10.758C72.1873 10.758 71.2021 11.1612 70.4017 11.9676C69.6136 12.7619 69.2195 13.7728 69.2195 15.0004C69.2195 16.252 69.6013 17.275 70.3647 18.0693C71.1282 18.8516 72.1134 19.2427 73.3202 19.2427C74.2684 19.2427 75.0319 18.984 75.6106 18.4665C76.2017 17.949 76.565 17.3773 76.7005 16.7515H71.473V14.6393H79.8591V21.3188H77.6979V18.7012C76.8482 20.5666 75.3151 21.4993 73.0985 21.4993Z" fill="url(#paint8_linear_2021_139)"/>
<path d="M52.4212 21.3187L57.6301 8.68195H61.1582L66.3486 21.3187H63.5964L62.4696 18.4664H56.3002L55.1919 21.3187H52.4212ZM57.1683 16.264H61.6199L59.3849 10.6136L57.1683 16.264Z" fill="url(#paint9_linear_2021_139)"/>
<path d="M51.2134 21.3188H48.295C48.1226 20.9938 48.0117 20.6328 47.9625 20.2356C47.9009 19.7903 47.8701 19.1886 47.8701 18.4304C47.8701 17.0102 47.1682 16.3002 45.7644 16.3002H42.9936V21.3188H40.5V8.68198H46.8357C48.141 8.68198 49.1754 9.01896 49.9389 9.69292C50.7024 10.3548 51.0841 11.2033 51.0841 12.2383C51.0841 12.9965 50.8502 13.6765 50.3822 14.2783C49.9266 14.868 49.3109 15.3012 48.5351 15.5781C49.8035 15.9872 50.4746 16.926 50.5485 18.3942C50.5854 19.1404 50.647 19.7 50.7332 20.0731C50.8194 20.4342 50.9795 20.7531 51.2134 21.0299V21.3188ZM42.9936 14.0436H46.6879C47.2913 14.0436 47.7593 13.9052 48.0918 13.6284C48.4243 13.3395 48.5905 12.9544 48.5905 12.473C48.5905 11.9916 48.4243 11.6185 48.0918 11.3538C47.7716 11.0769 47.3037 10.9385 46.6879 10.9385H42.9936V14.0436Z" fill="url(#paint10_linear_2021_139)"/>
<defs>
<linearGradient id="paint0_linear_2021_139" x1="5.70349" y1="2.95488e-06" x2="30.812" y2="1.00996" gradientUnits="userSpaceOnUse">
<stop stop-color="#70FFDE"/>
<stop offset="1" stop-color="#9852FF"/>
</linearGradient>
<linearGradient id="paint1_linear_2021_139" x1="0.602195" y1="-4.98359" x2="9.06297" y2="-3.68782" gradientUnits="userSpaceOnUse">
<stop stop-color="#70FFDE"/>
<stop offset="1" stop-color="#9852FF"/>
</linearGradient>
<linearGradient id="paint2_linear_2021_139" x1="38.597" y1="4.56546" x2="105.503" y2="79.3872" gradientUnits="userSpaceOnUse">
<stop stop-color="#70FFDE"/>
<stop offset="1" stop-color="#9852FF"/>
</linearGradient>
<linearGradient id="paint3_linear_2021_139" x1="38.597" y1="4.56546" x2="105.503" y2="79.3873" gradientUnits="userSpaceOnUse">
<stop stop-color="#70FFDE"/>
<stop offset="1" stop-color="#9852FF"/>
</linearGradient>
<linearGradient id="paint4_linear_2021_139" x1="38.597" y1="4.56546" x2="105.503" y2="79.3873" gradientUnits="userSpaceOnUse">
<stop stop-color="#70FFDE"/>
<stop offset="1" stop-color="#9852FF"/>
</linearGradient>
<linearGradient id="paint5_linear_2021_139" x1="38.597" y1="4.56546" x2="105.503" y2="79.3872" gradientUnits="userSpaceOnUse">
<stop stop-color="#70FFDE"/>
<stop offset="1" stop-color="#9852FF"/>
</linearGradient>
<linearGradient id="paint6_linear_2021_139" x1="38.597" y1="4.56546" x2="105.503" y2="79.3872" gradientUnits="userSpaceOnUse">
<stop stop-color="#70FFDE"/>
<stop offset="1" stop-color="#9852FF"/>
</linearGradient>
<linearGradient id="paint7_linear_2021_139" x1="38.5971" y1="4.56545" x2="105.503" y2="79.3872" gradientUnits="userSpaceOnUse">
<stop stop-color="#70FFDE"/>
<stop offset="1" stop-color="#9852FF"/>
</linearGradient>
<linearGradient id="paint8_linear_2021_139" x1="38.597" y1="4.56548" x2="105.503" y2="79.3873" gradientUnits="userSpaceOnUse">
<stop stop-color="#70FFDE"/>
<stop offset="1" stop-color="#9852FF"/>
</linearGradient>
<linearGradient id="paint9_linear_2021_139" x1="38.597" y1="4.56545" x2="105.503" y2="79.3872" gradientUnits="userSpaceOnUse">
<stop stop-color="#70FFDE"/>
<stop offset="1" stop-color="#9852FF"/>
</linearGradient>
<linearGradient id="paint10_linear_2021_139" x1="38.597" y1="4.56548" x2="105.503" y2="79.3873" gradientUnits="userSpaceOnUse">
<stop stop-color="#70FFDE"/>
<stop offset="1" stop-color="#9852FF"/>
</linearGradient>
</defs>
</svg>
